<?xml version="1.0" encoding="utf-8"?>
<!-- Generator: Adobe Illustrator 22.1.0, SVG Export Plug-In . SVG Version: 6.00 Build 0)  -->
<svg version="1.0" id="Ebene_2" xmlns="http://www.w3.org/2000/svg" xmlns:xlink="http://www.w3.org/1999/xlink" x="0px" y="0px"
	 viewBox="0 0 40 40" style="enable-background:new 0 0 40 40;" xml:space="preserve">
<path d="M35.9,38c-0.4,0-0.8-0.1-1.1-0.4L21.6,24.3c-0.6-0.6-0.6-1.5,0-2.1s1.5-0.6,2.1,0l13.2,13.2c0.6,0.6,0.6,1.5,0,2.1
	C36.7,37.9,36.3,38,35.9,38z M14.5,4.2C8.8,4.2,4.2,8.9,4.2,14.6s4.6,10.3,10.3,10.3s10.3-4.6,10.3-10.3S20.2,4.2,14.5,4.2
	 M14.5,2.2c6.8,0,12.3,5.5,12.3,12.3s-5.5,12.3-12.3,12.3S2.2,21.4,2.2,14.6S7.7,2.2,14.5,2.2L14.5,2.2z M22.7,23.3l13.2,13.2"/>
</svg>
