<?xml version="1.0" encoding="utf-8"?>
<!-- Generator: Adobe Illustrator 22.1.0, SVG Export Plug-In . SVG Version: 6.00 Build 0)  -->
<svg version="1.0" id="Ebene_2" xmlns="http://www.w3.org/2000/svg" xmlns:xlink="http://www.w3.org/1999/xlink" x="0px" y="0px"
	 viewBox="0 0 14400 14400" style="enable-background:new 0 0 14400 14400;" xml:space="preserve">
<path d="M7215.4,7217.5c-0.4,0-0.8-0.1-1.1-0.4l-13.2-13.2c-0.6-0.6-0.6-1.5,0-2.1s1.5-0.6,2.1,0l13.2,13.2c0.6,0.6,0.6,1.5,0,2.1
	C7216.2,7217.4,7215.8,7217.5,7215.4,7217.5z M7194,7183.7c-5.7,0-10.3,4.6-10.3,10.3c0,5.7,4.6,10.3,10.3,10.3
	c5.7,0,10.3-4.6,10.3-10.3C7204.3,7188.4,7199.7,7183.7,7194,7183.7 M7194,7181.7c6.8,0,12.3,5.5,12.3,12.3s-5.5,12.3-12.3,12.3
	c-6.8,0-12.3-5.5-12.3-12.3S7187.2,7181.7,7194,7181.7L7194,7181.7z M7202.2,7202.8l13.2,13.2"/>
</svg>
