<?xml version="1.0" encoding="utf-8"?>
<!-- Generator: Adobe Illustrator 22.1.0, SVG Export Plug-In . SVG Version: 6.00 Build 0)  -->
<svg version="1.1" id="Ebene_1" xmlns:x="&ns_extend;" xmlns:i="&ns_ai;" xmlns:graph="&ns_graphs;"
	 xmlns="http://www.w3.org/2000/svg" xmlns:xlink="http://www.w3.org/1999/xlink" x="0px" y="0px" width="40px" height="40px"
	 viewBox="0 0 40 40" style="enable-background:new 0 0 40 40;" xml:space="preserve">
<style type="text/css">
	.Schlagschatten{fill:none;}
	.Scheinwerfer{fill:url(#SVGID_1_);}
	.Weicher_x0020_Umriss{opacity:0.5;fill:#231F20;}
	.Seidenpapiercollage{fill:url(#);}
	.Lodern_GS{fill:#00427E;}
</style>
<metadata>
	<sfw  xmlns="&ns_sfw;">
		<slices></slices>
		<sliceSourceBounds  bottomLeftOrigin="true" height="40" width="37.1" x="1.7" y="-40"></sliceSourceBounds>
	</sfw>
</metadata>
<linearGradient id="SVGID_1_" gradientUnits="userSpaceOnUse" x1="0" y1="0" x2="0.6428" y2="-0.766">
	<stop  offset="6.179800e-02" style="stop-color:#231F20"/>
	<stop  offset="0.5719" style="stop-color:#9F9D9E"/>
	<stop  offset="0.9831" style="stop-color:#FFFFFF"/>
</linearGradient>
<path d="M18.7,15.2l-0.4-0.6l0.1-0.1l0.1,0.1l0,0l-0.1-0.1c0.1-0.1,3.5-2.1,6.1,0.7l0.1,0.1l-0.5,0.5l-0.1-0.1
	c-2.2-2.3-4.8-0.8-5.1-0.6L18.7,15.2z M37.5,18.5l0.5,0.4l0,0.2c0,0.8-0.1,2.6,0,3.6c0.1,1.4-1.4,4.2-1.4,4.2c0,0-1.9,4.3-2.5,5.3
	c-0.7,1-2.9,1.6-3.2,1.7l-9.2,5.4c0,0-1.2,0.7-3,0.7c-1.9,0-3.7-0.8-5.4-2.2c-3.9-3.5-4.7-10.7-4.8-11.9C7.6,25.4,7,24.8,6.6,24
	c-0.5-1.2-0.7-2.9,1.7-4.4c0.9-0.5,1.8-0.8,2.7-0.8c0.1-0.4,0.2-0.9,0.4-1.3c0.2-0.5,0.5-0.9,0.9-1.3c0.3-0.6,0.7-1.2,1.2-1.6
	c-0.1-0.1-0.2-0.2-0.3-0.4c-0.4,0.1-0.7,0.2-1,0.5l-0.1,0.1l-0.5-0.5l0.1-0.1c0.3-0.3,0.6-0.5,0.9-0.6c-0.5-0.6-1.2-1.2-2-2
	C8.3,9.1,2.2,7.3,2.2,7.3L1.7,7.1l0.2-0.4c0-0.1,1-2,2.8-3.1c4-2.5,5.1-3.2,7.2-3.6c2-0.4,2.3,0.9,2.4,1.4c0,0.1,0.1,0.2,0.1,0.3
	c0.1,0.3,1,1.1,1.5,1.6l3.3,2.4c0.4-1.4,1.5-4.3,3-4.6c6.5-1.3,9.9,1.1,12.7,3.1l0.3,0.2c2.9,2,2.8,5.9,2.8,6L37.8,15l1.1,0.6
	L37.5,18.5z M9.3,26.3c0.2,1.8,1.1,8,4.5,10.9c3.9,3.4,7.3,1.5,7.5,1.4l8.9-5.2l-0.3-2l0.3-0.1c0.1,0,1.1-0.2,1.9-0.8
	c0.9-0.6,1.2-1.7,0.9-2.9c0-0.1-0.1-0.3-0.3-0.3c-0.7-0.4-2.2-0.1-3,0.2l-0.3,0.1l-0.9-1.8l0.9-1.9l-1.2,0.5l0-5.2
	c0,0,0.1-2.3-1.9-4.1c-2.1-1.8-6.4-1.8-6.5-1.8c-0.1,0-0.2,0-0.3,0l0,0l0,0c-0.7,0-2.1,0.1-4.1,0.9c-0.4,0.2-0.8,0.5-1.2,0.9
	c0.6-0.2,1.1-0.1,1.6,0.1c1.4,0.7,1.8,2.9,0.9,4.9c-0.3,0.6-0.7,1.2-1.2,1.6c0.1,0.1,0.1,0.2,0.1,0.2l0.1,0.1L15,22.3l-0.1-0.1
	c0,0-1.2-2-3.1-2.5c-1-0.3-2,0-3.1,0.6c-1.5,1-2,2.1-1.4,3.5c0.5,1.1,1.6,1.8,2.8,2l2.2,0.3l-0.1,0.7L10,26.5
	C9.8,26.4,9.5,26.4,9.3,26.3z M12,0.8c-1.9,0.3-3,1-6.9,3.5C4,5,3.2,6.1,2.8,6.7c1.7,0.5,6.3,2.1,8.4,4.3c1,1,1.8,1.8,2.3,2.4
	c0,0,0,0,0,0c0.5,0,1,0.1,1.2,0.2c0,0,0,0,0.1,0c0.1-0.1,0.2-0.1,0.2-0.1c1.4-0.6,2.5-0.8,3.3-0.9l-1.5-1c-0.1-0.1-2.5-1.5-2.7-3.6
	c-0.2-1.9-0.4-5.6-0.4-5.7l0-0.1c-0.1-0.1-0.1-0.3-0.1-0.4C13.4,1.1,13.3,0.6,12,0.8z M36.7,18.6l1.2-2.6L35,14.3l-1.1,2.6
	L36.7,18.6z M19.3,12.8L19.3,12.8L19.3,12.8C19.3,12.8,19.3,12.8,19.3,12.8z M34.7,5.1l-0.3-0.2c-2.7-1.9-6-4.2-12.2-3
	c-1.1,0.2-2.1,2.9-2.5,4.6l-0.1,0.5L15.4,4c-0.1-0.1-0.5-0.5-0.9-0.9c0.1,1.2,0.2,3.4,0.4,4.7c0.1,1.7,2.2,3,2.3,3.1l2.4,1.6
	c0.1,0,0.2,0,0.2,0c0,0,3.9-0.1,6.4,1.5l1.5-0.4l3.1,2l2.8-0.2l0.1,0.1l1-2.3l2.4,1.4l0.2-4.1C37.3,10.5,37.3,6.9,34.7,5.1z
	 M12.9,16.6c-0.5,0.9-0.8,1.9-0.9,2.3c0.1,0,0.2,0.1,0.3,0.1c0.3-0.8,0.8-1.2,1.3-1.1c0.4,0,0.6,0.3,0.8,0.8c0.2,0.4,0.2,1,0.1,1.6
	c0,0.1,0,0.2-0.1,0.3c0.1,0.2,0.3,0.3,0.4,0.5c0.4-0.4,0.7-0.9,1-1.4c0.4-0.8,0.5-1.7,0.4-2.4c-0.1-0.7-0.4-1.2-0.9-1.5
	c-0.5-0.2-1.1-0.2-1.7,0.2C13.5,16.1,13.2,16.3,12.9,16.6z M30.6,32l0.2,1.1c0.8-0.2,2.2-0.8,2.6-1.3c0.3-0.5,1.2-2.4,2.4-5.1l0-0.1
	c0.7-1.3,1.4-3,1.4-3.8c-0.1-1.1,0-2.8,0-3.5l-0.1-0.1L37,19.7l-4-2.5l0.4-1l-0.1-0.1l-2.7,0.2l-3-1.9l-0.6,0.2c2.1,2,2,4.5,2,4.6
	l0,4.1l2-0.8l-1.7,3.4l0.5,1c0.8-0.2,2.4-0.5,3.3,0c0.3,0.2,0.5,0.4,0.6,0.8c0.4,1.5,0,2.9-1.1,3.7C31.8,31.6,31.1,31.8,30.6,32z
	 M31,29.6c0.3,0,0.6-0.3,0.6-0.6s-0.3-0.6-0.6-0.6s-0.6,0.3-0.6,0.6S30.7,29.6,31,29.6z M18.5,31.7c1.2,0,2.4-0.3,3.5-0.9
	c0.1,0.1,0.3,0.2,0.5,0.2c0,0,0,0,0,0c0.2,0,0.4-0.1,0.5-0.2c0.1-0.1,0.2-0.3,0.2-0.5c0-0.2-0.1-0.4-0.2-0.5
	c-0.1-0.1-0.3-0.2-0.5-0.2c0,0,0,0,0,0c-0.2,0-0.4,0.1-0.5,0.2c-0.1,0.1-0.2,0.3-0.2,0.5c-3.8,1.9-7.1-0.2-7.1-0.2l-0.1-0.1
	l-0.4,0.6l0.1,0.1C14.5,30.7,16.2,31.7,18.5,31.7z M17.8,19c0.1-1.1,0.6-2.1,1.2-2.8c0.7-0.7,1.5-1.1,2.3-1c1.7,0.2,2.8,2.3,2.5,4.6
	c-0.3,2.2-1.7,3.8-3.3,3.8c-0.1,0-0.2,0-0.3,0C18.6,23.4,17.5,21.4,17.8,19z M18.5,19.1c-0.2,1.2,0.1,2.4,0.7,3.1
	c-0.1-0.3-0.1-0.7-0.1-1.1c0-0.6,0.2-1.1,0.5-1.5c0.3-0.4,0.6-0.6,0.9-0.6c0,0,0,0,0.1,0c0.7,0.1,1.2,1.1,1.1,2.3
	c0,0.5-0.2,1-0.4,1.4c0.9-0.4,1.6-1.6,1.8-3c0.2-1.9-0.6-3.6-1.8-3.8C19.9,15.8,18.7,17.3,18.5,19.1z"/>
</svg>
